<mxfile host="65bd71144e">
    <diagram id="T7fpfcv4vCOdEy8_zd1V" name="Page-1">
        <mxGraphModel dx="1696" dy="1106" grid="1" gridSize="10" guides="1" tooltips="1" connect="1" arrows="1" fold="1" page="1" pageScale="1" pageWidth="850" pageHeight="1100" background="none" math="0" shadow="1">
            <root>
                <mxCell id="0"/>
                <mxCell id="1" parent="0"/>
                <mxCell id="4" value="lemons()" style="ellipse;whiteSpace=wrap;html=1;" parent="1" vertex="1">
                    <mxGeometry x="50" y="40" width="90" height="50" as="geometry"/>
                </mxCell>
                <mxCell id="9" value="" style="endArrow=classic;html=1;exitX=0.5;exitY=1;exitDx=0;exitDy=0;entryX=0.5;entryY=0;entryDx=0;entryDy=0;" parent="1" source="4" edge="1">
                    <mxGeometry width="50" height="50" relative="1" as="geometry">
                        <mxPoint x="170" y="180" as="sourcePoint"/>
                        <mxPoint x="95" y="100" as="targetPoint"/>
                    </mxGeometry>
                </mxCell>
                <mxCell id="22" style="edgeStyle=none;html=1;exitX=0.5;exitY=1;exitDx=0;exitDy=0;" parent="1" source="10" target="18" edge="1">
                    <mxGeometry relative="1" as="geometry"/>
                </mxCell>
                <mxCell id="10" value="Start" style="ellipse;whiteSpace=wrap;html=1;" parent="1" vertex="1">
                    <mxGeometry x="-210" y="40" width="90" height="50" as="geometry"/>
                </mxCell>
                <mxCell id="16" value="fpurchase()" style="ellipse;whiteSpace=wrap;html=1;" parent="1" vertex="1">
                    <mxGeometry x="770" y="45" width="90" height="50" as="geometry"/>
                </mxCell>
                <mxCell id="17" value="" style="endArrow=classic;html=1;exitX=0.5;exitY=1;exitDx=0;exitDy=0;" parent="1" source="16" edge="1">
                    <mxGeometry width="50" height="50" relative="1" as="geometry">
                        <mxPoint x="890" y="185" as="sourcePoint"/>
                        <mxPoint x="815" y="115" as="targetPoint"/>
                    </mxGeometry>
                </mxCell>
                <mxCell id="20" style="edgeStyle=none;html=1;exitX=0.5;exitY=1;exitDx=0;exitDy=0;entryX=0.5;entryY=0;entryDx=0;entryDy=0;" parent="1" source="18" target="19" edge="1">
                    <mxGeometry relative="1" as="geometry"/>
                </mxCell>
                <mxCell id="18" value="State menu item prices" style="rounded=0;whiteSpace=wrap;html=1;" parent="1" vertex="1">
                    <mxGeometry x="-205" y="100" width="80" height="40" as="geometry"/>
                </mxCell>
                <mxCell id="26" style="edgeStyle=none;html=1;exitX=0.5;exitY=1;exitDx=0;exitDy=0;" parent="1" source="19" target="25" edge="1">
                    <mxGeometry relative="1" as="geometry"/>
                </mxCell>
                <mxCell id="19" value="Initialise window" style="rounded=0;whiteSpace=wrap;html=1;" parent="1" vertex="1">
                    <mxGeometry x="-205" y="150" width="80" height="40" as="geometry"/>
                </mxCell>
                <mxCell id="28" style="edgeStyle=none;html=1;exitX=0.5;exitY=1;exitDx=0;exitDy=0;entryX=0.5;entryY=0;entryDx=0;entryDy=0;" parent="1" source="25" edge="1">
                    <mxGeometry relative="1" as="geometry">
                        <mxPoint x="-165" y="250" as="targetPoint"/>
                    </mxGeometry>
                </mxCell>
                <mxCell id="25" value="Initialise widgets" style="rounded=0;whiteSpace=wrap;html=1;" parent="1" vertex="1">
                    <mxGeometry x="-205" y="200" width="80" height="40" as="geometry"/>
                </mxCell>
                <mxCell id="30" value="call lemons()" style="ellipse;whiteSpace=wrap;html=1;" parent="1" vertex="1">
                    <mxGeometry x="-90" y="245" width="90" height="50" as="geometry"/>
                </mxCell>
                <mxCell id="35" value="call ice()" style="ellipse;whiteSpace=wrap;html=1;" parent="1" vertex="1">
                    <mxGeometry x="-90" y="330" width="90" height="50" as="geometry"/>
                </mxCell>
                <mxCell id="42" style="edgeStyle=none;html=1;entryX=0;entryY=0.5;entryDx=0;entryDy=0;exitX=0.5;exitY=1;exitDx=0;exitDy=0;" parent="1" source="203" edge="1">
                    <mxGeometry relative="1" as="geometry">
                        <mxPoint x="-230" y="721.1294376148898" as="sourcePoint"/>
                        <mxPoint x="-205" y="270" as="targetPoint"/>
                        <Array as="points">
                            <mxPoint x="-165" y="800"/>
                            <mxPoint x="-230" y="800"/>
                            <mxPoint x="-230" y="650"/>
                            <mxPoint x="-230" y="570"/>
                            <mxPoint x="-230" y="470"/>
                            <mxPoint x="-230" y="340"/>
                            <mxPoint x="-230" y="270"/>
                        </Array>
                    </mxGeometry>
                </mxCell>
                <mxCell id="38" value="call lemonade()" style="ellipse;whiteSpace=wrap;html=1;" parent="1" vertex="1">
                    <mxGeometry x="-80" y="405" width="90" height="50" as="geometry"/>
                </mxCell>
                <mxCell id="43" value="" style="endArrow=classic;html=1;exitX=0.5;exitY=1;exitDx=0;exitDy=0;entryX=0.5;entryY=0;entryDx=0;entryDy=0;" parent="1" edge="1">
                    <mxGeometry relative="1" as="geometry">
                        <mxPoint x="-165" y="290" as="sourcePoint"/>
                        <mxPoint x="-165" y="335" as="targetPoint"/>
                    </mxGeometry>
                </mxCell>
                <mxCell id="44" value="no" style="edgeLabel;resizable=0;html=1;;align=center;verticalAlign=middle;" parent="43" connectable="0" vertex="1">
                    <mxGeometry relative="1" as="geometry"/>
                </mxCell>
                <mxCell id="45" value="" style="endArrow=classic;html=1;exitX=0.5;exitY=1;exitDx=0;exitDy=0;entryX=0.5;entryY=0;entryDx=0;entryDy=0;" parent="1" edge="1">
                    <mxGeometry relative="1" as="geometry">
                        <mxPoint x="-165" y="375" as="sourcePoint"/>
                        <mxPoint x="-165" y="410" as="targetPoint"/>
                    </mxGeometry>
                </mxCell>
                <mxCell id="46" value="no" style="edgeLabel;resizable=0;html=1;;align=center;verticalAlign=middle;" parent="45" connectable="0" vertex="1">
                    <mxGeometry relative="1" as="geometry"/>
                </mxCell>
                <mxCell id="48" value="" style="endArrow=classic;html=1;exitX=1;exitY=0.5;exitDx=0;exitDy=0;entryX=0;entryY=0.5;entryDx=0;entryDy=0;" parent="1" target="35" edge="1">
                    <mxGeometry relative="1" as="geometry">
                        <mxPoint x="-125" y="355" as="sourcePoint"/>
                        <mxPoint x="-40" y="400" as="targetPoint"/>
                    </mxGeometry>
                </mxCell>
                <mxCell id="49" value="yes" style="edgeLabel;resizable=0;html=1;;align=center;verticalAlign=middle;" parent="48" connectable="0" vertex="1">
                    <mxGeometry relative="1" as="geometry"/>
                </mxCell>
                <mxCell id="51" value="" style="endArrow=classic;html=1;exitX=1;exitY=0.5;exitDx=0;exitDy=0;" parent="1" target="30" edge="1">
                    <mxGeometry relative="1" as="geometry">
                        <mxPoint x="-125" y="270" as="sourcePoint"/>
                        <mxPoint y="310" as="targetPoint"/>
                    </mxGeometry>
                </mxCell>
                <mxCell id="52" value="yes" style="edgeLabel;resizable=0;html=1;;align=center;verticalAlign=middle;" parent="51" connectable="0" vertex="1">
                    <mxGeometry relative="1" as="geometry"/>
                </mxCell>
                <mxCell id="54" value="" style="endArrow=classic;html=1;exitX=1;exitY=0.5;exitDx=0;exitDy=0;entryX=0;entryY=0.5;entryDx=0;entryDy=0;" parent="1" edge="1">
                    <mxGeometry relative="1" as="geometry">
                        <mxPoint x="-125" y="429.74" as="sourcePoint"/>
                        <mxPoint x="-80" y="429.74" as="targetPoint"/>
                    </mxGeometry>
                </mxCell>
                <mxCell id="55" value="yes" style="edgeLabel;resizable=0;html=1;;align=center;verticalAlign=middle;" parent="54" connectable="0" vertex="1">
                    <mxGeometry relative="1" as="geometry"/>
                </mxCell>
                <mxCell id="56" value="no" style="edgeLabel;resizable=0;html=1;;align=center;verticalAlign=middle;" parent="1" connectable="0" vertex="1">
                    <mxGeometry x="-139.99842105263167" y="335" as="geometry">
                        <mxPoint x="-87" y="29" as="offset"/>
                    </mxGeometry>
                </mxCell>
                <mxCell id="57" value="if num_lemons modified" style="rhombus;whiteSpace=wrap;html=1;" parent="1" vertex="1">
                    <mxGeometry x="-205" y="250" width="80" height="40" as="geometry"/>
                </mxCell>
                <mxCell id="58" value="if num_ice modified" style="rhombus;whiteSpace=wrap;html=1;" parent="1" vertex="1">
                    <mxGeometry x="-205" y="335" width="80" height="40" as="geometry"/>
                </mxCell>
                <mxCell id="59" value="if num_lemonade modified" style="rhombus;whiteSpace=wrap;html=1;" parent="1" vertex="1">
                    <mxGeometry x="-205" y="410" width="80" height="40" as="geometry"/>
                </mxCell>
                <mxCell id="61" value="&lt;span style=&quot;color: rgb(0, 0, 0);&quot;&gt;if num_lemons has no input&lt;/span&gt;" style="rhombus;whiteSpace=wrap;html=1;" parent="1" vertex="1">
                    <mxGeometry x="55" y="100" width="80" height="40" as="geometry"/>
                </mxCell>
                <mxCell id="63" value="" style="endArrow=classic;html=1;exitX=0.5;exitY=1;exitDx=0;exitDy=0;entryX=0.5;entryY=0;entryDx=0;entryDy=0;" parent="1" source="61" target="68" edge="1">
                    <mxGeometry relative="1" as="geometry">
                        <mxPoint x="118" y="170" as="sourcePoint"/>
                        <mxPoint x="98" y="170" as="targetPoint"/>
                    </mxGeometry>
                </mxCell>
                <mxCell id="64" value="yes" style="edgeLabel;resizable=0;html=1;;align=center;verticalAlign=middle;" parent="63" connectable="0" vertex="1">
                    <mxGeometry relative="1" as="geometry"/>
                </mxCell>
                <mxCell id="66" value="" style="endArrow=classic;html=1;exitX=1;exitY=0.5;exitDx=0;exitDy=0;" parent="1" source="61" edge="1">
                    <mxGeometry relative="1" as="geometry">
                        <mxPoint x="105" y="150" as="sourcePoint"/>
                        <mxPoint x="168" y="120" as="targetPoint"/>
                    </mxGeometry>
                </mxCell>
                <mxCell id="67" value="no" style="edgeLabel;resizable=0;html=1;;align=center;verticalAlign=middle;" parent="66" connectable="0" vertex="1">
                    <mxGeometry relative="1" as="geometry"/>
                </mxCell>
                <mxCell id="71" value="" style="edgeStyle=none;html=1;" parent="1" source="68" target="70" edge="1">
                    <mxGeometry relative="1" as="geometry"/>
                </mxCell>
                <mxCell id="68" value="set lemon price to $1.50" style="rounded=0;whiteSpace=wrap;html=1;" parent="1" vertex="1">
                    <mxGeometry x="55" y="160" width="80" height="40" as="geometry"/>
                </mxCell>
                <mxCell id="79" style="edgeStyle=none;html=1;entryX=0.5;entryY=0;entryDx=0;entryDy=0;" parent="1" source="70" target="78" edge="1">
                    <mxGeometry relative="1" as="geometry">
                        <Array as="points">
                            <mxPoint x="95" y="270"/>
                        </Array>
                    </mxGeometry>
                </mxCell>
                <mxCell id="70" value="modify label to new price" style="rounded=0;whiteSpace=wrap;html=1;" parent="1" vertex="1">
                    <mxGeometry x="55" y="210" width="80" height="40" as="geometry"/>
                </mxCell>
                <mxCell id="77" value="" style="edgeStyle=none;html=1;" parent="1" source="72" target="75" edge="1">
                    <mxGeometry relative="1" as="geometry"/>
                </mxCell>
                <mxCell id="72" value="(lemon_price*&lt;br&gt;num_lemonds)" style="rounded=0;whiteSpace=wrap;html=1;" parent="1" vertex="1">
                    <mxGeometry x="168" y="100" width="80" height="40" as="geometry"/>
                </mxCell>
                <mxCell id="80" style="edgeStyle=none;html=1;entryX=0.539;entryY=-0.012;entryDx=0;entryDy=0;entryPerimeter=0;" parent="1" source="75" target="78" edge="1">
                    <mxGeometry relative="1" as="geometry">
                        <mxPoint x="208" y="240" as="targetPoint"/>
                        <Array as="points">
                            <mxPoint x="208" y="240"/>
                            <mxPoint x="158" y="240"/>
                        </Array>
                    </mxGeometry>
                </mxCell>
                <mxCell id="75" value="&lt;span style=&quot;color: rgb(0, 0, 0);&quot;&gt;set lemon price from entry&lt;/span&gt;" style="rounded=0;whiteSpace=wrap;html=1;" parent="1" vertex="1">
                    <mxGeometry x="168" y="160" width="80" height="40" as="geometry"/>
                </mxCell>
                <mxCell id="78" value="call fpurchase()" style="ellipse;whiteSpace=wrap;html=1;" parent="1" vertex="1">
                    <mxGeometry x="108" y="270" width="90" height="50" as="geometry"/>
                </mxCell>
                <mxCell id="81" value="lemonade()" style="ellipse;whiteSpace=wrap;html=1;" parent="1" vertex="1">
                    <mxGeometry x="501" y="40" width="90" height="50" as="geometry"/>
                </mxCell>
                <mxCell id="82" value="" style="endArrow=classic;html=1;exitX=0.5;exitY=1;exitDx=0;exitDy=0;entryX=0.5;entryY=0;entryDx=0;entryDy=0;" parent="1" source="81" edge="1">
                    <mxGeometry width="50" height="50" relative="1" as="geometry">
                        <mxPoint x="621" y="180" as="sourcePoint"/>
                        <mxPoint x="546" y="100" as="targetPoint"/>
                    </mxGeometry>
                </mxCell>
                <mxCell id="83" value="&lt;span style=&quot;color: rgb(0, 0, 0);&quot;&gt;if num_lemonade has no input&lt;/span&gt;" style="rhombus;whiteSpace=wrap;html=1;" parent="1" vertex="1">
                    <mxGeometry x="506" y="100" width="80" height="40" as="geometry"/>
                </mxCell>
                <mxCell id="84" value="" style="endArrow=classic;html=1;exitX=0.5;exitY=1;exitDx=0;exitDy=0;entryX=0.5;entryY=0;entryDx=0;entryDy=0;" parent="1" source="83" target="89" edge="1">
                    <mxGeometry relative="1" as="geometry">
                        <mxPoint x="569" y="170" as="sourcePoint"/>
                        <mxPoint x="549" y="170" as="targetPoint"/>
                    </mxGeometry>
                </mxCell>
                <mxCell id="85" value="yes" style="edgeLabel;resizable=0;html=1;;align=center;verticalAlign=middle;" parent="84" connectable="0" vertex="1">
                    <mxGeometry relative="1" as="geometry"/>
                </mxCell>
                <mxCell id="86" value="" style="endArrow=classic;html=1;exitX=1;exitY=0.5;exitDx=0;exitDy=0;" parent="1" source="83" edge="1">
                    <mxGeometry relative="1" as="geometry">
                        <mxPoint x="556" y="150" as="sourcePoint"/>
                        <mxPoint x="619" y="120" as="targetPoint"/>
                    </mxGeometry>
                </mxCell>
                <mxCell id="87" value="no" style="edgeLabel;resizable=0;html=1;;align=center;verticalAlign=middle;" parent="86" connectable="0" vertex="1">
                    <mxGeometry relative="1" as="geometry"/>
                </mxCell>
                <mxCell id="88" value="" style="edgeStyle=none;html=1;" parent="1" source="89" target="91" edge="1">
                    <mxGeometry relative="1" as="geometry"/>
                </mxCell>
                <mxCell id="89" value="set lemonade price to $2.00" style="rounded=0;whiteSpace=wrap;html=1;" parent="1" vertex="1">
                    <mxGeometry x="506" y="160" width="80" height="40" as="geometry"/>
                </mxCell>
                <mxCell id="90" style="edgeStyle=none;html=1;entryX=0.5;entryY=0;entryDx=0;entryDy=0;" parent="1" source="91" target="96" edge="1">
                    <mxGeometry relative="1" as="geometry">
                        <Array as="points">
                            <mxPoint x="546" y="270"/>
                        </Array>
                    </mxGeometry>
                </mxCell>
                <mxCell id="91" value="modify label to new price" style="rounded=0;whiteSpace=wrap;html=1;" parent="1" vertex="1">
                    <mxGeometry x="506" y="210" width="80" height="40" as="geometry"/>
                </mxCell>
                <mxCell id="92" value="" style="edgeStyle=none;html=1;" parent="1" source="93" target="95" edge="1">
                    <mxGeometry relative="1" as="geometry"/>
                </mxCell>
                <mxCell id="93" value="&lt;span style=&quot;color: rgb(0, 0, 0);&quot;&gt;(lemonade_price*&lt;/span&gt;&lt;br&gt;&lt;span style=&quot;color: rgb(0, 0, 0);&quot;&gt;num_lemonade)&lt;/span&gt;" style="rounded=0;whiteSpace=wrap;html=1;" parent="1" vertex="1">
                    <mxGeometry x="619" y="100" width="80" height="40" as="geometry"/>
                </mxCell>
                <mxCell id="94" style="edgeStyle=none;html=1;entryX=0.539;entryY=-0.012;entryDx=0;entryDy=0;entryPerimeter=0;" parent="1" source="95" target="96" edge="1">
                    <mxGeometry relative="1" as="geometry">
                        <mxPoint x="659" y="240" as="targetPoint"/>
                        <Array as="points">
                            <mxPoint x="659" y="240"/>
                            <mxPoint x="609" y="240"/>
                        </Array>
                    </mxGeometry>
                </mxCell>
                <mxCell id="95" value="&lt;span style=&quot;color: rgb(0, 0, 0);&quot;&gt;set lemonade price from entry&lt;/span&gt;" style="rounded=0;whiteSpace=wrap;html=1;" parent="1" vertex="1">
                    <mxGeometry x="619" y="160" width="80" height="40" as="geometry"/>
                </mxCell>
                <mxCell id="96" value="call fpurchase()" style="ellipse;whiteSpace=wrap;html=1;" parent="1" vertex="1">
                    <mxGeometry x="559" y="270" width="90" height="50" as="geometry"/>
                </mxCell>
                <mxCell id="97" value="ice()" style="ellipse;whiteSpace=wrap;html=1;" parent="1" vertex="1">
                    <mxGeometry x="280" y="40" width="90" height="50" as="geometry"/>
                </mxCell>
                <mxCell id="98" value="" style="endArrow=classic;html=1;exitX=0.5;exitY=1;exitDx=0;exitDy=0;entryX=0.5;entryY=0;entryDx=0;entryDy=0;" parent="1" source="97" edge="1">
                    <mxGeometry width="50" height="50" relative="1" as="geometry">
                        <mxPoint x="400" y="180" as="sourcePoint"/>
                        <mxPoint x="325" y="100" as="targetPoint"/>
                    </mxGeometry>
                </mxCell>
                <mxCell id="99" value="&lt;span style=&quot;color: rgb(0, 0, 0);&quot;&gt;if num_ice has no input&lt;/span&gt;" style="rhombus;whiteSpace=wrap;html=1;" parent="1" vertex="1">
                    <mxGeometry x="285" y="100" width="80" height="40" as="geometry"/>
                </mxCell>
                <mxCell id="100" value="" style="endArrow=classic;html=1;exitX=0.5;exitY=1;exitDx=0;exitDy=0;entryX=0.5;entryY=0;entryDx=0;entryDy=0;" parent="1" source="99" target="105" edge="1">
                    <mxGeometry relative="1" as="geometry">
                        <mxPoint x="348" y="170" as="sourcePoint"/>
                        <mxPoint x="328" y="170" as="targetPoint"/>
                    </mxGeometry>
                </mxCell>
                <mxCell id="101" value="yes" style="edgeLabel;resizable=0;html=1;;align=center;verticalAlign=middle;" parent="100" connectable="0" vertex="1">
                    <mxGeometry relative="1" as="geometry"/>
                </mxCell>
                <mxCell id="102" value="" style="endArrow=classic;html=1;exitX=1;exitY=0.5;exitDx=0;exitDy=0;" parent="1" source="99" edge="1">
                    <mxGeometry relative="1" as="geometry">
                        <mxPoint x="335" y="150" as="sourcePoint"/>
                        <mxPoint x="398" y="120" as="targetPoint"/>
                    </mxGeometry>
                </mxCell>
                <mxCell id="103" value="no" style="edgeLabel;resizable=0;html=1;;align=center;verticalAlign=middle;" parent="102" connectable="0" vertex="1">
                    <mxGeometry relative="1" as="geometry"/>
                </mxCell>
                <mxCell id="104" value="" style="edgeStyle=none;html=1;" parent="1" source="105" target="107" edge="1">
                    <mxGeometry relative="1" as="geometry"/>
                </mxCell>
                <mxCell id="105" value="set ice price to $0.50" style="rounded=0;whiteSpace=wrap;html=1;" parent="1" vertex="1">
                    <mxGeometry x="285" y="160" width="80" height="40" as="geometry"/>
                </mxCell>
                <mxCell id="106" style="edgeStyle=none;html=1;entryX=0.5;entryY=0;entryDx=0;entryDy=0;" parent="1" source="107" target="112" edge="1">
                    <mxGeometry relative="1" as="geometry">
                        <Array as="points">
                            <mxPoint x="325" y="270"/>
                        </Array>
                    </mxGeometry>
                </mxCell>
                <mxCell id="107" value="modify label to new price" style="rounded=0;whiteSpace=wrap;html=1;" parent="1" vertex="1">
                    <mxGeometry x="285" y="210" width="80" height="40" as="geometry"/>
                </mxCell>
                <mxCell id="108" value="" style="edgeStyle=none;html=1;" parent="1" source="109" target="111" edge="1">
                    <mxGeometry relative="1" as="geometry"/>
                </mxCell>
                <mxCell id="109" value="&lt;span style=&quot;color: rgb(0, 0, 0);&quot;&gt;(ice_price*&lt;/span&gt;&lt;br&gt;&lt;span style=&quot;color: rgb(0, 0, 0);&quot;&gt;num_ice)&lt;/span&gt;" style="rounded=0;whiteSpace=wrap;html=1;" parent="1" vertex="1">
                    <mxGeometry x="398" y="100" width="80" height="40" as="geometry"/>
                </mxCell>
                <mxCell id="110" style="edgeStyle=none;html=1;entryX=0.539;entryY=-0.012;entryDx=0;entryDy=0;entryPerimeter=0;" parent="1" source="111" target="112" edge="1">
                    <mxGeometry relative="1" as="geometry">
                        <mxPoint x="438" y="240" as="targetPoint"/>
                        <Array as="points">
                            <mxPoint x="438" y="240"/>
                            <mxPoint x="388" y="240"/>
                        </Array>
                    </mxGeometry>
                </mxCell>
                <mxCell id="113" value="" style="edgeStyle=none;html=1;" parent="1" source="111" target="109" edge="1">
                    <mxGeometry relative="1" as="geometry"/>
                </mxCell>
                <mxCell id="111" value="&lt;span style=&quot;color: rgb(0, 0, 0);&quot;&gt;set ice price from entry&lt;/span&gt;" style="rounded=0;whiteSpace=wrap;html=1;" parent="1" vertex="1">
                    <mxGeometry x="398" y="160" width="80" height="40" as="geometry"/>
                </mxCell>
                <mxCell id="112" value="call fpurchase()" style="ellipse;whiteSpace=wrap;html=1;" parent="1" vertex="1">
                    <mxGeometry x="338" y="270" width="90" height="50" as="geometry"/>
                </mxCell>
                <mxCell id="116" value="" style="edgeStyle=none;html=1;" parent="1" source="114" target="115" edge="1">
                    <mxGeometry relative="1" as="geometry"/>
                </mxCell>
                <mxCell id="114" value="initalise current prices of all items" style="rounded=0;whiteSpace=wrap;html=1;" parent="1" vertex="1">
                    <mxGeometry x="775" y="115" width="80" height="40" as="geometry"/>
                </mxCell>
                <mxCell id="119" value="" style="edgeStyle=none;html=1;" parent="1" source="115" target="118" edge="1">
                    <mxGeometry relative="1" as="geometry"/>
                </mxCell>
                <mxCell id="115" value="&lt;span style=&quot;color: rgb(0, 0, 0);&quot;&gt;calculate total price&lt;/span&gt;" style="rounded=0;whiteSpace=wrap;html=1;" parent="1" vertex="1">
                    <mxGeometry x="775" y="175" width="80" height="40" as="geometry"/>
                </mxCell>
                <mxCell id="118" value="&lt;span style=&quot;color: rgb(0, 0, 0);&quot;&gt;if lemon_selected is false&lt;/span&gt;" style="rhombus;whiteSpace=wrap;html=1;" parent="1" vertex="1">
                    <mxGeometry x="775" y="235" width="80" height="40" as="geometry"/>
                </mxCell>
                <mxCell id="121" value="yes" style="endArrow=classic;html=1;exitX=1;exitY=0.5;exitDx=0;exitDy=0;" parent="1" source="118" edge="1">
                    <mxGeometry relative="1" as="geometry">
                        <mxPoint x="775" y="254.73000000000002" as="sourcePoint"/>
                        <mxPoint x="900" y="255" as="targetPoint"/>
                    </mxGeometry>
                </mxCell>
                <mxCell id="123" value="" style="endArrow=classic;html=1;exitX=0.5;exitY=1;exitDx=0;exitDy=0;entryX=0.5;entryY=0;entryDx=0;entryDy=0;" parent="1" edge="1">
                    <mxGeometry relative="1" as="geometry">
                        <mxPoint x="814.86" y="275" as="sourcePoint"/>
                        <mxPoint x="814.86" y="295" as="targetPoint"/>
                    </mxGeometry>
                </mxCell>
                <mxCell id="124" value="no" style="edgeLabel;resizable=0;html=1;;align=center;verticalAlign=middle;" parent="123" connectable="0" vertex="1">
                    <mxGeometry relative="1" as="geometry"/>
                </mxCell>
                <mxCell id="125" value="&lt;span style=&quot;color: rgb(0, 0, 0);&quot;&gt;if ice_selected is false&lt;/span&gt;" style="rhombus;whiteSpace=wrap;html=1;" parent="1" vertex="1">
                    <mxGeometry x="775" y="295" width="80" height="40" as="geometry"/>
                </mxCell>
                <mxCell id="126" value="" style="endArrow=classic;html=1;exitX=0.5;exitY=1;exitDx=0;exitDy=0;entryX=0.5;entryY=0;entryDx=0;entryDy=0;" parent="1" edge="1">
                    <mxGeometry relative="1" as="geometry">
                        <mxPoint x="814.86" y="335" as="sourcePoint"/>
                        <mxPoint x="814.86" y="355" as="targetPoint"/>
                    </mxGeometry>
                </mxCell>
                <mxCell id="127" value="no" style="edgeLabel;resizable=0;html=1;;align=center;verticalAlign=middle;" parent="126" connectable="0" vertex="1">
                    <mxGeometry relative="1" as="geometry"/>
                </mxCell>
                <mxCell id="128" value="&lt;span style=&quot;color: rgb(0, 0, 0);&quot;&gt;if lemonade_ selected is false&lt;/span&gt;" style="rhombus;whiteSpace=wrap;html=1;" parent="1" vertex="1">
                    <mxGeometry x="775" y="355" width="80" height="40" as="geometry"/>
                </mxCell>
                <mxCell id="129" value="" style="endArrow=classic;html=1;exitX=0.5;exitY=1;exitDx=0;exitDy=0;entryX=0.5;entryY=0;entryDx=0;entryDy=0;" parent="1" edge="1">
                    <mxGeometry relative="1" as="geometry">
                        <mxPoint x="814.78" y="395" as="sourcePoint"/>
                        <mxPoint x="814.78" y="415" as="targetPoint"/>
                    </mxGeometry>
                </mxCell>
                <mxCell id="130" value="no" style="edgeLabel;resizable=0;html=1;;align=center;verticalAlign=middle;" parent="129" connectable="0" vertex="1">
                    <mxGeometry relative="1" as="geometry"/>
                </mxCell>
                <mxCell id="131" value="yes" style="endArrow=classic;html=1;exitX=1;exitY=0.5;exitDx=0;exitDy=0;" parent="1" edge="1">
                    <mxGeometry relative="1" as="geometry">
                        <mxPoint x="855" y="314.78" as="sourcePoint"/>
                        <mxPoint x="900" y="314.78" as="targetPoint"/>
                    </mxGeometry>
                </mxCell>
                <mxCell id="132" value="yes" style="endArrow=classic;html=1;exitX=1;exitY=0.5;exitDx=0;exitDy=0;" parent="1" edge="1">
                    <mxGeometry relative="1" as="geometry">
                        <mxPoint x="855" y="374.78" as="sourcePoint"/>
                        <mxPoint x="900" y="374.78" as="targetPoint"/>
                    </mxGeometry>
                </mxCell>
                <mxCell id="138" style="edgeStyle=none;html=1;" parent="1" source="133" edge="1">
                    <mxGeometry relative="1" as="geometry">
                        <mxPoint x="1020" y="315" as="targetPoint"/>
                        <Array as="points">
                            <mxPoint x="1020" y="255"/>
                        </Array>
                    </mxGeometry>
                </mxCell>
                <mxCell id="133" value="&lt;span style=&quot;color: rgb(0, 0, 0);&quot;&gt;remove lemon price from total price&lt;/span&gt;" style="rounded=0;whiteSpace=wrap;html=1;" parent="1" vertex="1">
                    <mxGeometry x="900" y="235" width="80" height="40" as="geometry"/>
                </mxCell>
                <mxCell id="139" style="edgeStyle=none;html=1;" parent="1" source="134" edge="1">
                    <mxGeometry relative="1" as="geometry">
                        <mxPoint x="1020" y="375" as="targetPoint"/>
                        <Array as="points">
                            <mxPoint x="1020" y="315"/>
                        </Array>
                    </mxGeometry>
                </mxCell>
                <mxCell id="134" value="&lt;span style=&quot;color: rgb(0, 0, 0);&quot;&gt;remove ice price from total price&lt;/span&gt;" style="rounded=0;whiteSpace=wrap;html=1;" parent="1" vertex="1">
                    <mxGeometry x="900" y="295" width="80" height="40" as="geometry"/>
                </mxCell>
                <mxCell id="140" style="edgeStyle=none;html=1;" parent="1" source="135" edge="1">
                    <mxGeometry relative="1" as="geometry">
                        <mxPoint x="1020" y="440" as="targetPoint"/>
                        <Array as="points">
                            <mxPoint x="1020" y="375"/>
                            <mxPoint x="1020" y="435"/>
                        </Array>
                    </mxGeometry>
                </mxCell>
                <mxCell id="135" value="&lt;span style=&quot;color: rgb(0, 0, 0);&quot;&gt;remove lemonade price from total price&lt;/span&gt;" style="rounded=0;whiteSpace=wrap;html=1;" parent="1" vertex="1">
                    <mxGeometry x="900" y="355" width="80" height="40" as="geometry"/>
                </mxCell>
                <mxCell id="137" value="&lt;span style=&quot;color: rgb(0, 0, 0);&quot;&gt;update purchase button&lt;/span&gt;" style="rounded=0;whiteSpace=wrap;html=1;" parent="1" vertex="1">
                    <mxGeometry x="775" y="657" width="80" height="40" as="geometry"/>
                </mxCell>
                <mxCell id="141" value="mango_lemonade()" style="ellipse;whiteSpace=wrap;html=1;" parent="1" vertex="1">
                    <mxGeometry x="50" y="350" width="90" height="50" as="geometry"/>
                </mxCell>
                <mxCell id="142" value="" style="endArrow=classic;html=1;exitX=0.5;exitY=1;exitDx=0;exitDy=0;entryX=0.5;entryY=0;entryDx=0;entryDy=0;" parent="1" source="141" edge="1">
                    <mxGeometry width="50" height="50" relative="1" as="geometry">
                        <mxPoint x="170" y="490" as="sourcePoint"/>
                        <mxPoint x="95" y="410" as="targetPoint"/>
                    </mxGeometry>
                </mxCell>
                <mxCell id="143" value="&lt;span style=&quot;color: rgb(0, 0, 0);&quot;&gt;if num_mango has no input&lt;/span&gt;" style="rhombus;whiteSpace=wrap;html=1;" parent="1" vertex="1">
                    <mxGeometry x="55" y="410" width="80" height="40" as="geometry"/>
                </mxCell>
                <mxCell id="144" value="" style="endArrow=classic;html=1;exitX=0.5;exitY=1;exitDx=0;exitDy=0;entryX=0.5;entryY=0;entryDx=0;entryDy=0;" parent="1" source="143" target="149" edge="1">
                    <mxGeometry relative="1" as="geometry">
                        <mxPoint x="118" y="480" as="sourcePoint"/>
                        <mxPoint x="98" y="480" as="targetPoint"/>
                    </mxGeometry>
                </mxCell>
                <mxCell id="145" value="yes" style="edgeLabel;resizable=0;html=1;;align=center;verticalAlign=middle;" parent="144" connectable="0" vertex="1">
                    <mxGeometry relative="1" as="geometry"/>
                </mxCell>
                <mxCell id="146" value="" style="endArrow=classic;html=1;exitX=1;exitY=0.5;exitDx=0;exitDy=0;" parent="1" source="143" edge="1">
                    <mxGeometry relative="1" as="geometry">
                        <mxPoint x="105" y="460" as="sourcePoint"/>
                        <mxPoint x="168" y="430" as="targetPoint"/>
                    </mxGeometry>
                </mxCell>
                <mxCell id="147" value="no" style="edgeLabel;resizable=0;html=1;;align=center;verticalAlign=middle;" parent="146" connectable="0" vertex="1">
                    <mxGeometry relative="1" as="geometry"/>
                </mxCell>
                <mxCell id="148" value="" style="edgeStyle=none;html=1;" parent="1" source="149" target="151" edge="1">
                    <mxGeometry relative="1" as="geometry"/>
                </mxCell>
                <mxCell id="149" value="set mango price to $2.50" style="rounded=0;whiteSpace=wrap;html=1;" parent="1" vertex="1">
                    <mxGeometry x="55" y="470" width="80" height="40" as="geometry"/>
                </mxCell>
                <mxCell id="150" style="edgeStyle=none;html=1;entryX=0.5;entryY=0;entryDx=0;entryDy=0;" parent="1" source="151" target="156" edge="1">
                    <mxGeometry relative="1" as="geometry">
                        <Array as="points">
                            <mxPoint x="95" y="580"/>
                        </Array>
                    </mxGeometry>
                </mxCell>
                <mxCell id="151" value="modify label to new price" style="rounded=0;whiteSpace=wrap;html=1;" parent="1" vertex="1">
                    <mxGeometry x="55" y="520" width="80" height="40" as="geometry"/>
                </mxCell>
                <mxCell id="152" value="" style="edgeStyle=none;html=1;" parent="1" source="153" target="155" edge="1">
                    <mxGeometry relative="1" as="geometry"/>
                </mxCell>
                <mxCell id="153" value="&lt;span style=&quot;color: rgb(0, 0, 0);&quot;&gt;(mango_price*&lt;/span&gt;&lt;br&gt;&lt;span style=&quot;color: rgb(0, 0, 0);&quot;&gt;num_mango)&lt;/span&gt;" style="rounded=0;whiteSpace=wrap;html=1;" parent="1" vertex="1">
                    <mxGeometry x="168" y="410" width="80" height="40" as="geometry"/>
                </mxCell>
                <mxCell id="154" style="edgeStyle=none;html=1;entryX=0.539;entryY=-0.012;entryDx=0;entryDy=0;entryPerimeter=0;" parent="1" source="155" target="156" edge="1">
                    <mxGeometry relative="1" as="geometry">
                        <mxPoint x="208" y="550" as="targetPoint"/>
                        <Array as="points">
                            <mxPoint x="208" y="550"/>
                            <mxPoint x="158" y="550"/>
                        </Array>
                    </mxGeometry>
                </mxCell>
                <mxCell id="155" value="&lt;span style=&quot;color: rgb(0, 0, 0);&quot;&gt;set mango price from entry&lt;/span&gt;" style="rounded=0;whiteSpace=wrap;html=1;" parent="1" vertex="1">
                    <mxGeometry x="168" y="470" width="80" height="40" as="geometry"/>
                </mxCell>
                <mxCell id="156" value="call fpurchase()" style="ellipse;whiteSpace=wrap;html=1;" parent="1" vertex="1">
                    <mxGeometry x="108" y="580" width="90" height="50" as="geometry"/>
                </mxCell>
                <mxCell id="157" value="blueberry_lemonade()" style="ellipse;whiteSpace=wrap;html=1;" parent="1" vertex="1">
                    <mxGeometry x="501" y="350" width="90" height="50" as="geometry"/>
                </mxCell>
                <mxCell id="158" value="" style="endArrow=classic;html=1;exitX=0.5;exitY=1;exitDx=0;exitDy=0;entryX=0.5;entryY=0;entryDx=0;entryDy=0;" parent="1" source="157" edge="1">
                    <mxGeometry width="50" height="50" relative="1" as="geometry">
                        <mxPoint x="621" y="490" as="sourcePoint"/>
                        <mxPoint x="546" y="410" as="targetPoint"/>
                    </mxGeometry>
                </mxCell>
                <mxCell id="159" value="&lt;span style=&quot;color: rgb(0, 0, 0);&quot;&gt;if num_blueberry has no input&lt;/span&gt;" style="rhombus;whiteSpace=wrap;html=1;" parent="1" vertex="1">
                    <mxGeometry x="506" y="410" width="80" height="40" as="geometry"/>
                </mxCell>
                <mxCell id="160" value="" style="endArrow=classic;html=1;exitX=0.5;exitY=1;exitDx=0;exitDy=0;entryX=0.5;entryY=0;entryDx=0;entryDy=0;" parent="1" source="159" target="165" edge="1">
                    <mxGeometry relative="1" as="geometry">
                        <mxPoint x="569" y="480" as="sourcePoint"/>
                        <mxPoint x="549" y="480" as="targetPoint"/>
                    </mxGeometry>
                </mxCell>
                <mxCell id="161" value="yes" style="edgeLabel;resizable=0;html=1;;align=center;verticalAlign=middle;" parent="160" connectable="0" vertex="1">
                    <mxGeometry relative="1" as="geometry"/>
                </mxCell>
                <mxCell id="162" value="" style="endArrow=classic;html=1;exitX=1;exitY=0.5;exitDx=0;exitDy=0;" parent="1" source="159" edge="1">
                    <mxGeometry relative="1" as="geometry">
                        <mxPoint x="556" y="460" as="sourcePoint"/>
                        <mxPoint x="619" y="430" as="targetPoint"/>
                    </mxGeometry>
                </mxCell>
                <mxCell id="163" value="no" style="edgeLabel;resizable=0;html=1;;align=center;verticalAlign=middle;" parent="162" connectable="0" vertex="1">
                    <mxGeometry relative="1" as="geometry"/>
                </mxCell>
                <mxCell id="164" value="" style="edgeStyle=none;html=1;" parent="1" source="165" target="167" edge="1">
                    <mxGeometry relative="1" as="geometry"/>
                </mxCell>
                <mxCell id="165" value="&lt;span style=&quot;color: rgb(0, 0, 0);&quot;&gt;set blueberry price to $2.50&lt;/span&gt;" style="rounded=0;whiteSpace=wrap;html=1;" parent="1" vertex="1">
                    <mxGeometry x="506" y="470" width="80" height="40" as="geometry"/>
                </mxCell>
                <mxCell id="166" style="edgeStyle=none;html=1;entryX=0.5;entryY=0;entryDx=0;entryDy=0;" parent="1" source="167" target="172" edge="1">
                    <mxGeometry relative="1" as="geometry">
                        <Array as="points">
                            <mxPoint x="546" y="580"/>
                        </Array>
                    </mxGeometry>
                </mxCell>
                <mxCell id="167" value="modify label to new price" style="rounded=0;whiteSpace=wrap;html=1;" parent="1" vertex="1">
                    <mxGeometry x="506" y="520" width="80" height="40" as="geometry"/>
                </mxCell>
                <mxCell id="168" value="" style="edgeStyle=none;html=1;" parent="1" source="169" target="171" edge="1">
                    <mxGeometry relative="1" as="geometry"/>
                </mxCell>
                <mxCell id="169" value="&lt;span style=&quot;color: rgb(0, 0, 0);&quot;&gt;(blueberry_price*&lt;/span&gt;&lt;br&gt;&lt;span style=&quot;color: rgb(0, 0, 0);&quot;&gt;num_blueberry)&lt;/span&gt;" style="rounded=0;whiteSpace=wrap;html=1;" parent="1" vertex="1">
                    <mxGeometry x="619" y="410" width="80" height="40" as="geometry"/>
                </mxCell>
                <mxCell id="170" style="edgeStyle=none;html=1;entryX=0.539;entryY=-0.012;entryDx=0;entryDy=0;entryPerimeter=0;" parent="1" source="171" target="172" edge="1">
                    <mxGeometry relative="1" as="geometry">
                        <mxPoint x="659" y="550" as="targetPoint"/>
                        <Array as="points">
                            <mxPoint x="659" y="550"/>
                            <mxPoint x="609" y="550"/>
                        </Array>
                    </mxGeometry>
                </mxCell>
                <mxCell id="171" value="&lt;span style=&quot;color: rgb(0, 0, 0);&quot;&gt;set blueberry price from entry&lt;/span&gt;" style="rounded=0;whiteSpace=wrap;html=1;" parent="1" vertex="1">
                    <mxGeometry x="619" y="470" width="80" height="40" as="geometry"/>
                </mxCell>
                <mxCell id="172" value="call fpurchase()" style="ellipse;whiteSpace=wrap;html=1;" parent="1" vertex="1">
                    <mxGeometry x="559" y="580" width="90" height="50" as="geometry"/>
                </mxCell>
                <mxCell id="173" value="strawberry_lemonade()" style="ellipse;whiteSpace=wrap;html=1;" parent="1" vertex="1">
                    <mxGeometry x="280" y="350" width="90" height="50" as="geometry"/>
                </mxCell>
                <mxCell id="174" value="" style="endArrow=classic;html=1;exitX=0.5;exitY=1;exitDx=0;exitDy=0;entryX=0.5;entryY=0;entryDx=0;entryDy=0;" parent="1" source="173" edge="1">
                    <mxGeometry width="50" height="50" relative="1" as="geometry">
                        <mxPoint x="400" y="490" as="sourcePoint"/>
                        <mxPoint x="325" y="410" as="targetPoint"/>
                    </mxGeometry>
                </mxCell>
                <mxCell id="175" value="&lt;span style=&quot;color: rgb(0, 0, 0);&quot;&gt;if num_strawberry has no input&lt;/span&gt;" style="rhombus;whiteSpace=wrap;html=1;" parent="1" vertex="1">
                    <mxGeometry x="285" y="410" width="80" height="40" as="geometry"/>
                </mxCell>
                <mxCell id="176" value="" style="endArrow=classic;html=1;exitX=0.5;exitY=1;exitDx=0;exitDy=0;entryX=0.5;entryY=0;entryDx=0;entryDy=0;" parent="1" source="175" target="181" edge="1">
                    <mxGeometry relative="1" as="geometry">
                        <mxPoint x="348" y="480" as="sourcePoint"/>
                        <mxPoint x="328" y="480" as="targetPoint"/>
                    </mxGeometry>
                </mxCell>
                <mxCell id="177" value="yes" style="edgeLabel;resizable=0;html=1;;align=center;verticalAlign=middle;" parent="176" connectable="0" vertex="1">
                    <mxGeometry relative="1" as="geometry"/>
                </mxCell>
                <mxCell id="178" value="" style="endArrow=classic;html=1;exitX=1;exitY=0.5;exitDx=0;exitDy=0;" parent="1" source="175" edge="1">
                    <mxGeometry relative="1" as="geometry">
                        <mxPoint x="335" y="460" as="sourcePoint"/>
                        <mxPoint x="398" y="430" as="targetPoint"/>
                    </mxGeometry>
                </mxCell>
                <mxCell id="179" value="no" style="edgeLabel;resizable=0;html=1;;align=center;verticalAlign=middle;" parent="178" connectable="0" vertex="1">
                    <mxGeometry relative="1" as="geometry"/>
                </mxCell>
                <mxCell id="180" value="" style="edgeStyle=none;html=1;" parent="1" source="181" target="183" edge="1">
                    <mxGeometry relative="1" as="geometry"/>
                </mxCell>
                <mxCell id="181" value="&lt;span style=&quot;color: rgb(0, 0, 0);&quot;&gt;set strawberry price to $2.50&lt;/span&gt;" style="rounded=0;whiteSpace=wrap;html=1;" parent="1" vertex="1">
                    <mxGeometry x="285" y="470" width="80" height="40" as="geometry"/>
                </mxCell>
                <mxCell id="182" style="edgeStyle=none;html=1;entryX=0.5;entryY=0;entryDx=0;entryDy=0;" parent="1" source="183" target="189" edge="1">
                    <mxGeometry relative="1" as="geometry">
                        <Array as="points">
                            <mxPoint x="325" y="580"/>
                        </Array>
                    </mxGeometry>
                </mxCell>
                <mxCell id="183" value="modify label to new price" style="rounded=0;whiteSpace=wrap;html=1;" parent="1" vertex="1">
                    <mxGeometry x="285" y="520" width="80" height="40" as="geometry"/>
                </mxCell>
                <mxCell id="184" value="" style="edgeStyle=none;html=1;" parent="1" source="185" target="188" edge="1">
                    <mxGeometry relative="1" as="geometry"/>
                </mxCell>
                <mxCell id="185" value="&lt;span style=&quot;color: rgb(0, 0, 0);&quot;&gt;(strawberry_price*&lt;/span&gt;&lt;br&gt;&lt;span style=&quot;color: rgb(0, 0, 0);&quot;&gt;num_strawberry)&lt;/span&gt;" style="rounded=0;whiteSpace=wrap;html=1;" parent="1" vertex="1">
                    <mxGeometry x="398" y="410" width="80" height="40" as="geometry"/>
                </mxCell>
                <mxCell id="186" style="edgeStyle=none;html=1;entryX=0.539;entryY=-0.012;entryDx=0;entryDy=0;entryPerimeter=0;" parent="1" source="188" target="189" edge="1">
                    <mxGeometry relative="1" as="geometry">
                        <mxPoint x="438" y="550" as="targetPoint"/>
                        <Array as="points">
                            <mxPoint x="438" y="550"/>
                            <mxPoint x="388" y="550"/>
                        </Array>
                    </mxGeometry>
                </mxCell>
                <mxCell id="187" value="" style="edgeStyle=none;html=1;" parent="1" source="188" target="185" edge="1">
                    <mxGeometry relative="1" as="geometry"/>
                </mxCell>
                <mxCell id="188" value="&lt;span style=&quot;color: rgb(0, 0, 0);&quot;&gt;set strawberry price from entry&lt;/span&gt;" style="rounded=0;whiteSpace=wrap;html=1;" parent="1" vertex="1">
                    <mxGeometry x="398" y="470" width="80" height="40" as="geometry"/>
                </mxCell>
                <mxCell id="189" value="call fpurchase()" style="ellipse;whiteSpace=wrap;html=1;" parent="1" vertex="1">
                    <mxGeometry x="338" y="580" width="90" height="50" as="geometry"/>
                </mxCell>
                <mxCell id="192" value="" style="endArrow=classic;html=1;exitX=0.5;exitY=1;exitDx=0;exitDy=0;entryX=0.5;entryY=0;entryDx=0;entryDy=0;" parent="1" edge="1">
                    <mxGeometry relative="1" as="geometry">
                        <mxPoint x="-165" y="450" as="sourcePoint"/>
                        <mxPoint x="-165" y="485" as="targetPoint"/>
                    </mxGeometry>
                </mxCell>
                <mxCell id="193" value="no" style="edgeLabel;resizable=0;html=1;;align=center;verticalAlign=middle;" parent="192" connectable="0" vertex="1">
                    <mxGeometry relative="1" as="geometry"/>
                </mxCell>
                <mxCell id="194" value="if num_mango modified" style="rhombus;whiteSpace=wrap;html=1;" parent="1" vertex="1">
                    <mxGeometry x="-205" y="485" width="80" height="40" as="geometry"/>
                </mxCell>
                <mxCell id="195" value="" style="endArrow=classic;html=1;exitX=0.5;exitY=1;exitDx=0;exitDy=0;entryX=0.5;entryY=0;entryDx=0;entryDy=0;" parent="1" edge="1">
                    <mxGeometry relative="1" as="geometry">
                        <mxPoint x="-165" y="525" as="sourcePoint"/>
                        <mxPoint x="-165" y="560" as="targetPoint"/>
                    </mxGeometry>
                </mxCell>
                <mxCell id="196" value="no" style="edgeLabel;resizable=0;html=1;;align=center;verticalAlign=middle;" parent="195" connectable="0" vertex="1">
                    <mxGeometry relative="1" as="geometry"/>
                </mxCell>
                <mxCell id="197" value="if num_strawberry modified" style="rhombus;whiteSpace=wrap;html=1;" parent="1" vertex="1">
                    <mxGeometry x="-205" y="560" width="80" height="40" as="geometry"/>
                </mxCell>
                <mxCell id="198" value="" style="endArrow=classic;html=1;exitX=0.5;exitY=1;exitDx=0;exitDy=0;entryX=0.5;entryY=0;entryDx=0;entryDy=0;" parent="1" edge="1">
                    <mxGeometry relative="1" as="geometry">
                        <mxPoint x="-165" y="600" as="sourcePoint"/>
                        <mxPoint x="-165" y="635" as="targetPoint"/>
                    </mxGeometry>
                </mxCell>
                <mxCell id="199" value="no" style="edgeLabel;resizable=0;html=1;;align=center;verticalAlign=middle;" parent="198" connectable="0" vertex="1">
                    <mxGeometry relative="1" as="geometry"/>
                </mxCell>
                <mxCell id="200" value="if num_blueberry modified" style="rhombus;whiteSpace=wrap;html=1;" parent="1" vertex="1">
                    <mxGeometry x="-205" y="635" width="80" height="40" as="geometry"/>
                </mxCell>
                <mxCell id="201" value="" style="endArrow=classic;html=1;exitX=0.5;exitY=1;exitDx=0;exitDy=0;entryX=0.5;entryY=0;entryDx=0;entryDy=0;" parent="1" edge="1">
                    <mxGeometry relative="1" as="geometry">
                        <mxPoint x="-165" y="675" as="sourcePoint"/>
                        <mxPoint x="-165" y="710" as="targetPoint"/>
                    </mxGeometry>
                </mxCell>
                <mxCell id="202" value="no" style="edgeLabel;resizable=0;html=1;;align=center;verticalAlign=middle;" parent="201" connectable="0" vertex="1">
                    <mxGeometry relative="1" as="geometry"/>
                </mxCell>
                <mxCell id="203" value="if num_raspberry modified" style="rhombus;whiteSpace=wrap;html=1;" parent="1" vertex="1">
                    <mxGeometry x="-205" y="710" width="80" height="40" as="geometry"/>
                </mxCell>
                <mxCell id="217" value="raspberry_lemonade()" style="ellipse;whiteSpace=wrap;html=1;" parent="1" vertex="1">
                    <mxGeometry x="40" y="660" width="90" height="50" as="geometry"/>
                </mxCell>
                <mxCell id="218" value="" style="endArrow=classic;html=1;exitX=0.5;exitY=1;exitDx=0;exitDy=0;entryX=0.5;entryY=0;entryDx=0;entryDy=0;" parent="1" source="217" edge="1">
                    <mxGeometry width="50" height="50" relative="1" as="geometry">
                        <mxPoint x="160" y="800" as="sourcePoint"/>
                        <mxPoint x="85" y="720" as="targetPoint"/>
                    </mxGeometry>
                </mxCell>
                <mxCell id="219" value="&lt;span style=&quot;color: rgb(0, 0, 0);&quot;&gt;if num_raspberry has no input&lt;/span&gt;" style="rhombus;whiteSpace=wrap;html=1;" parent="1" vertex="1">
                    <mxGeometry x="45" y="720" width="80" height="40" as="geometry"/>
                </mxCell>
                <mxCell id="220" value="" style="endArrow=classic;html=1;exitX=0.5;exitY=1;exitDx=0;exitDy=0;entryX=0.5;entryY=0;entryDx=0;entryDy=0;" parent="1" source="219" target="225" edge="1">
                    <mxGeometry relative="1" as="geometry">
                        <mxPoint x="108" y="790" as="sourcePoint"/>
                        <mxPoint x="88" y="790" as="targetPoint"/>
                    </mxGeometry>
                </mxCell>
                <mxCell id="221" value="yes" style="edgeLabel;resizable=0;html=1;;align=center;verticalAlign=middle;" parent="220" connectable="0" vertex="1">
                    <mxGeometry relative="1" as="geometry"/>
                </mxCell>
                <mxCell id="222" value="" style="endArrow=classic;html=1;exitX=1;exitY=0.5;exitDx=0;exitDy=0;" parent="1" source="219" edge="1">
                    <mxGeometry relative="1" as="geometry">
                        <mxPoint x="95" y="770" as="sourcePoint"/>
                        <mxPoint x="158" y="740" as="targetPoint"/>
                    </mxGeometry>
                </mxCell>
                <mxCell id="223" value="no" style="edgeLabel;resizable=0;html=1;;align=center;verticalAlign=middle;" parent="222" connectable="0" vertex="1">
                    <mxGeometry relative="1" as="geometry"/>
                </mxCell>
                <mxCell id="224" value="" style="edgeStyle=none;html=1;" parent="1" source="225" target="227" edge="1">
                    <mxGeometry relative="1" as="geometry"/>
                </mxCell>
                <mxCell id="225" value="&lt;span style=&quot;color: rgb(0, 0, 0);&quot;&gt;set raspberry price to $2.50&lt;/span&gt;" style="rounded=0;whiteSpace=wrap;html=1;" parent="1" vertex="1">
                    <mxGeometry x="45" y="780" width="80" height="40" as="geometry"/>
                </mxCell>
                <mxCell id="226" style="edgeStyle=none;html=1;entryX=0.5;entryY=0;entryDx=0;entryDy=0;" parent="1" source="227" target="232" edge="1">
                    <mxGeometry relative="1" as="geometry">
                        <Array as="points">
                            <mxPoint x="85" y="890"/>
                        </Array>
                    </mxGeometry>
                </mxCell>
                <mxCell id="227" value="modify label to new price" style="rounded=0;whiteSpace=wrap;html=1;" parent="1" vertex="1">
                    <mxGeometry x="45" y="830" width="80" height="40" as="geometry"/>
                </mxCell>
                <mxCell id="228" value="" style="edgeStyle=none;html=1;" parent="1" source="229" target="231" edge="1">
                    <mxGeometry relative="1" as="geometry"/>
                </mxCell>
                <mxCell id="229" value="&lt;span style=&quot;color: rgb(0, 0, 0);&quot;&gt;(raspberry_price*&lt;/span&gt;&lt;br&gt;&lt;span style=&quot;color: rgb(0, 0, 0);&quot;&gt;num_raspberry)&lt;/span&gt;" style="rounded=0;whiteSpace=wrap;html=1;" parent="1" vertex="1">
                    <mxGeometry x="158" y="720" width="80" height="40" as="geometry"/>
                </mxCell>
                <mxCell id="230" style="edgeStyle=none;html=1;entryX=0.539;entryY=-0.012;entryDx=0;entryDy=0;entryPerimeter=0;" parent="1" source="231" target="232" edge="1">
                    <mxGeometry relative="1" as="geometry">
                        <mxPoint x="198" y="860" as="targetPoint"/>
                        <Array as="points">
                            <mxPoint x="198" y="860"/>
                            <mxPoint x="148" y="860"/>
                        </Array>
                    </mxGeometry>
                </mxCell>
                <mxCell id="231" value="&lt;span style=&quot;color: rgb(0, 0, 0);&quot;&gt;set raspberry price from entry&lt;/span&gt;" style="rounded=0;whiteSpace=wrap;html=1;" parent="1" vertex="1">
                    <mxGeometry x="158" y="780" width="80" height="40" as="geometry"/>
                </mxCell>
                <mxCell id="232" value="call fpurchase()" style="ellipse;whiteSpace=wrap;html=1;" parent="1" vertex="1">
                    <mxGeometry x="98" y="890" width="90" height="50" as="geometry"/>
                </mxCell>
                <mxCell id="234" value="call mango_lemonade()" style="ellipse;whiteSpace=wrap;html=1;" parent="1" vertex="1">
                    <mxGeometry x="-90" y="480" width="90" height="50" as="geometry"/>
                </mxCell>
                <mxCell id="235" value="call strawberry lemonade()" style="ellipse;whiteSpace=wrap;html=1;" parent="1" vertex="1">
                    <mxGeometry x="-90" y="555" width="90" height="50" as="geometry"/>
                </mxCell>
                <mxCell id="236" value="call blueberry lemonade()" style="ellipse;whiteSpace=wrap;html=1;" parent="1" vertex="1">
                    <mxGeometry x="-80" y="630" width="90" height="50" as="geometry"/>
                </mxCell>
                <mxCell id="237" value="" style="endArrow=classic;html=1;exitX=1;exitY=0.5;exitDx=0;exitDy=0;entryX=0;entryY=0.5;entryDx=0;entryDy=0;" parent="1" target="235" edge="1">
                    <mxGeometry relative="1" as="geometry">
                        <mxPoint x="-125" y="580" as="sourcePoint"/>
                        <mxPoint x="-40" y="625" as="targetPoint"/>
                    </mxGeometry>
                </mxCell>
                <mxCell id="238" value="yes" style="edgeLabel;resizable=0;html=1;;align=center;verticalAlign=middle;" parent="237" connectable="0" vertex="1">
                    <mxGeometry relative="1" as="geometry"/>
                </mxCell>
                <mxCell id="239" value="" style="endArrow=classic;html=1;exitX=1;exitY=0.5;exitDx=0;exitDy=0;" parent="1" target="234" edge="1">
                    <mxGeometry relative="1" as="geometry">
                        <mxPoint x="-125" y="505" as="sourcePoint"/>
                        <mxPoint y="545" as="targetPoint"/>
                    </mxGeometry>
                </mxCell>
                <mxCell id="240" value="yes" style="edgeLabel;resizable=0;html=1;;align=center;verticalAlign=middle;" parent="239" connectable="0" vertex="1">
                    <mxGeometry relative="1" as="geometry"/>
                </mxCell>
                <mxCell id="241" value="" style="endArrow=classic;html=1;exitX=1;exitY=0.5;exitDx=0;exitDy=0;entryX=0;entryY=0.5;entryDx=0;entryDy=0;" parent="1" edge="1">
                    <mxGeometry relative="1" as="geometry">
                        <mxPoint x="-125" y="654.74" as="sourcePoint"/>
                        <mxPoint x="-80" y="654.74" as="targetPoint"/>
                    </mxGeometry>
                </mxCell>
                <mxCell id="242" value="yes" style="edgeLabel;resizable=0;html=1;;align=center;verticalAlign=middle;" parent="241" connectable="0" vertex="1">
                    <mxGeometry relative="1" as="geometry"/>
                </mxCell>
                <mxCell id="243" value="call raspberry lemonade()" style="ellipse;whiteSpace=wrap;html=1;" parent="1" vertex="1">
                    <mxGeometry x="-80" y="705" width="90" height="50" as="geometry"/>
                </mxCell>
                <mxCell id="244" value="" style="endArrow=classic;html=1;exitX=1;exitY=0.5;exitDx=0;exitDy=0;entryX=0;entryY=0.5;entryDx=0;entryDy=0;" parent="1" edge="1">
                    <mxGeometry relative="1" as="geometry">
                        <mxPoint x="-125" y="729.74" as="sourcePoint"/>
                        <mxPoint x="-80" y="729.74" as="targetPoint"/>
                    </mxGeometry>
                </mxCell>
                <mxCell id="245" value="yes" style="edgeLabel;resizable=0;html=1;;align=center;verticalAlign=middle;" parent="244" connectable="0" vertex="1">
                    <mxGeometry relative="1" as="geometry"/>
                </mxCell>
                <mxCell id="248" value="&lt;span style=&quot;color: rgb(0, 0, 0);&quot;&gt;if lemon_selected is false&lt;/span&gt;" style="rhombus;whiteSpace=wrap;html=1;" parent="1" vertex="1">
                    <mxGeometry x="775" y="416" width="80" height="40" as="geometry"/>
                </mxCell>
                <mxCell id="249" value="yes" style="endArrow=classic;html=1;exitX=1;exitY=0.5;exitDx=0;exitDy=0;" parent="1" source="248" edge="1">
                    <mxGeometry relative="1" as="geometry">
                        <mxPoint x="775" y="435.73" as="sourcePoint"/>
                        <mxPoint x="900" y="436" as="targetPoint"/>
                    </mxGeometry>
                </mxCell>
                <mxCell id="250" value="" style="endArrow=classic;html=1;exitX=0.5;exitY=1;exitDx=0;exitDy=0;entryX=0.5;entryY=0;entryDx=0;entryDy=0;" parent="1" edge="1">
                    <mxGeometry relative="1" as="geometry">
                        <mxPoint x="814.86" y="456" as="sourcePoint"/>
                        <mxPoint x="814.86" y="476" as="targetPoint"/>
                    </mxGeometry>
                </mxCell>
                <mxCell id="251" value="no" style="edgeLabel;resizable=0;html=1;;align=center;verticalAlign=middle;" parent="250" connectable="0" vertex="1">
                    <mxGeometry relative="1" as="geometry"/>
                </mxCell>
                <mxCell id="252" value="&lt;span style=&quot;color: rgb(0, 0, 0);&quot;&gt;if ice_selected is false&lt;/span&gt;" style="rhombus;whiteSpace=wrap;html=1;" parent="1" vertex="1">
                    <mxGeometry x="775" y="476" width="80" height="40" as="geometry"/>
                </mxCell>
                <mxCell id="253" value="" style="endArrow=classic;html=1;exitX=0.5;exitY=1;exitDx=0;exitDy=0;entryX=0.5;entryY=0;entryDx=0;entryDy=0;" parent="1" edge="1">
                    <mxGeometry relative="1" as="geometry">
                        <mxPoint x="814.86" y="516" as="sourcePoint"/>
                        <mxPoint x="814.86" y="536" as="targetPoint"/>
                    </mxGeometry>
                </mxCell>
                <mxCell id="254" value="no" style="edgeLabel;resizable=0;html=1;;align=center;verticalAlign=middle;" parent="253" connectable="0" vertex="1">
                    <mxGeometry relative="1" as="geometry"/>
                </mxCell>
                <mxCell id="255" value="&lt;span style=&quot;color: rgb(0, 0, 0);&quot;&gt;if lemonade_ selected is false&lt;/span&gt;" style="rhombus;whiteSpace=wrap;html=1;" parent="1" vertex="1">
                    <mxGeometry x="775" y="536" width="80" height="40" as="geometry"/>
                </mxCell>
                <mxCell id="256" value="" style="endArrow=classic;html=1;exitX=0.5;exitY=1;exitDx=0;exitDy=0;entryX=0.5;entryY=0;entryDx=0;entryDy=0;" parent="1" edge="1">
                    <mxGeometry relative="1" as="geometry">
                        <mxPoint x="814.78" y="576" as="sourcePoint"/>
                        <mxPoint x="814.78" y="596" as="targetPoint"/>
                    </mxGeometry>
                </mxCell>
                <mxCell id="257" value="no" style="edgeLabel;resizable=0;html=1;;align=center;verticalAlign=middle;" parent="256" connectable="0" vertex="1">
                    <mxGeometry relative="1" as="geometry"/>
                </mxCell>
                <mxCell id="258" value="yes" style="endArrow=classic;html=1;exitX=1;exitY=0.5;exitDx=0;exitDy=0;" parent="1" edge="1">
                    <mxGeometry relative="1" as="geometry">
                        <mxPoint x="855" y="495.78" as="sourcePoint"/>
                        <mxPoint x="900" y="495.78" as="targetPoint"/>
                    </mxGeometry>
                </mxCell>
                <mxCell id="259" value="yes" style="endArrow=classic;html=1;exitX=1;exitY=0.5;exitDx=0;exitDy=0;" parent="1" edge="1">
                    <mxGeometry relative="1" as="geometry">
                        <mxPoint x="855" y="555.78" as="sourcePoint"/>
                        <mxPoint x="900" y="555.78" as="targetPoint"/>
                    </mxGeometry>
                </mxCell>
                <mxCell id="260" style="edgeStyle=none;html=1;" parent="1" source="261" edge="1">
                    <mxGeometry relative="1" as="geometry">
                        <mxPoint x="1020" y="496" as="targetPoint"/>
                        <Array as="points">
                            <mxPoint x="1020" y="436"/>
                        </Array>
                    </mxGeometry>
                </mxCell>
                <mxCell id="261" value="&lt;span style=&quot;color: rgb(0, 0, 0);&quot;&gt;remove lemon price from total price&lt;/span&gt;" style="rounded=0;whiteSpace=wrap;html=1;" parent="1" vertex="1">
                    <mxGeometry x="900" y="416" width="80" height="40" as="geometry"/>
                </mxCell>
                <mxCell id="262" style="edgeStyle=none;html=1;" parent="1" source="263" edge="1">
                    <mxGeometry relative="1" as="geometry">
                        <mxPoint x="1020" y="556" as="targetPoint"/>
                        <Array as="points">
                            <mxPoint x="1020" y="496"/>
                        </Array>
                    </mxGeometry>
                </mxCell>
                <mxCell id="263" value="&lt;span style=&quot;color: rgb(0, 0, 0);&quot;&gt;remove ice price from total price&lt;/span&gt;" style="rounded=0;whiteSpace=wrap;html=1;" parent="1" vertex="1">
                    <mxGeometry x="900" y="476" width="80" height="40" as="geometry"/>
                </mxCell>
                <mxCell id="264" value="&lt;span style=&quot;color: rgb(0, 0, 0);&quot;&gt;remove lemonade price from total price&lt;/span&gt;" style="rounded=0;whiteSpace=wrap;html=1;" parent="1" vertex="1">
                    <mxGeometry x="900" y="536" width="80" height="40" as="geometry"/>
                </mxCell>
                <mxCell id="265" value="&lt;span style=&quot;color: rgb(0, 0, 0);&quot;&gt;if lemonade_ selected is false&lt;/span&gt;" style="rhombus;whiteSpace=wrap;html=1;" parent="1" vertex="1">
                    <mxGeometry x="775" y="596" width="80" height="40" as="geometry"/>
                </mxCell>
                <mxCell id="268" value="yes" style="endArrow=classic;html=1;exitX=1;exitY=0.5;exitDx=0;exitDy=0;" parent="1" edge="1">
                    <mxGeometry relative="1" as="geometry">
                        <mxPoint x="855" y="615.78" as="sourcePoint"/>
                        <mxPoint x="900" y="615.78" as="targetPoint"/>
                    </mxGeometry>
                </mxCell>
                <mxCell id="269" value="&lt;span style=&quot;color: rgb(0, 0, 0);&quot;&gt;remove lemonade price from total price&lt;/span&gt;" style="rounded=0;whiteSpace=wrap;html=1;" parent="1" vertex="1">
                    <mxGeometry x="900" y="596" width="80" height="40" as="geometry"/>
                </mxCell>
                <mxCell id="270" style="edgeStyle=none;html=1;" parent="1" edge="1">
                    <mxGeometry relative="1" as="geometry">
                        <mxPoint x="1020" y="610" as="targetPoint"/>
                        <Array as="points">
                            <mxPoint x="1020" y="550"/>
                        </Array>
                        <mxPoint x="980" y="550" as="sourcePoint"/>
                    </mxGeometry>
                </mxCell>
                <mxCell id="271" style="edgeStyle=none;html=1;entryX=0.999;entryY=0.578;entryDx=0;entryDy=0;entryPerimeter=0;" parent="1" target="137" edge="1">
                    <mxGeometry relative="1" as="geometry">
                        <mxPoint x="860" y="680" as="targetPoint"/>
                        <Array as="points">
                            <mxPoint x="1020" y="610"/>
                            <mxPoint x="1020" y="680"/>
                        </Array>
                        <mxPoint x="980" y="610" as="sourcePoint"/>
                    </mxGeometry>
                </mxCell>
                <mxCell id="273" value="" style="endArrow=classic;html=1;exitX=0.5;exitY=1;exitDx=0;exitDy=0;entryX=0.5;entryY=0;entryDx=0;entryDy=0;" parent="1" edge="1">
                    <mxGeometry relative="1" as="geometry">
                        <mxPoint x="814.88" y="636" as="sourcePoint"/>
                        <mxPoint x="814.88" y="656" as="targetPoint"/>
                    </mxGeometry>
                </mxCell>
                <mxCell id="274" value="no" style="edgeLabel;resizable=0;html=1;;align=center;verticalAlign=middle;" parent="273" connectable="0" vertex="1">
                    <mxGeometry relative="1" as="geometry"/>
                </mxCell>
            </root>
        </mxGraphModel>
    </diagram>
</mxfile>